<svg id="Layer_1" enable-background="new 0 0 511.981 511.981" height="512" viewBox="0 0 511.981 511.981" width="512" xmlns="http://www.w3.org/2000/svg"><g><g clip-rule="evenodd" fill-rule="evenodd"><path d="m10.121 176.033h491.74c1.45-33.736-9.151-65.961-37.056-93.777-48.452-48.297-127.735-48.297-176.186 0-19.42 19.359-47.854 17.347-65.256 0-48.451-48.297-127.734-48.297-176.186 0-27.905 27.816-38.506 60.041-37.056 93.777z" fill="#ff9346"/><path d="m501.86 176.033h-491.739c2.294 53.377 34.755 110.536 76.574 159.999h338.591c41.82-49.463 74.281-106.622 76.574-159.999z" fill="#fff"/><path d="m425.286 336.032h-338.591c56.431 66.745 129.905 119.479 169.295 130 39.391-10.521 112.864-63.254 169.296-130z" fill="#88df8e"/></g><g><path d="m509.038 141.553c-5.307-24.748-17.814-47.081-37.174-66.379-52.467-52.301-137.837-52.3-190.305 0-16.607 16.555-38.742 12.356-51.137 0-52.467-52.301-137.837-52.3-190.305 0-19.359 19.298-31.867 41.632-37.174 66.379-4.802 22.392-3.724 46.876 3.204 72.772 19.217 71.832 77.867 136.724 111.117 169.012 48.317 46.919 101.758 83.171 136.146 92.356.846.226 1.713.339 2.581.339s1.735-.113 2.581-.339c34.388-9.185 87.829-45.437 136.146-92.356 33.25-32.288 91.9-97.18 111.117-169.012 6.927-25.896 8.005-50.38 3.203-72.772zm-128.253 227.436c-44.096 42.82-93.726 77.211-124.794 86.645-31.068-9.433-80.698-43.825-124.794-86.645-6.584-6.394-14.216-14.133-22.326-22.957h294.24c-8.111 8.824-15.742 16.564-22.326 22.957zm39.82-42.957h-329.229c-26.643-32.058-54.258-73.326-65.909-116.876-2.118-7.915-3.604-15.621-4.489-23.123h69.288c5.523 0 10-4.477 10-10s-4.477-10-10-10h-70.177c.979-29.315 12.385-55.001 34.148-76.695 22.341-22.27 51.687-33.405 81.033-33.405s58.692 11.135 81.033 33.405c22.255 22.185 57.121 22.185 79.375 0 44.683-44.54 117.385-44.54 162.066 0 21.763 21.694 33.169 47.38 34.148 76.695h-311.626c-5.523 0-10 4.477-10 10s4.477 10 10 10h310.736c-.885 7.502-2.371 15.208-4.489 23.123-11.65 43.55-39.266 84.818-65.908 116.876z"/><path d="m255.99 201.033c-30.328 0-55 24.673-55 55s24.673 55 55 55 55-24.673 55-55-24.673-55-55-55zm18.845 73.845c-3.168 3.168-3.765 7.933-1.793 11.704-2.349 1.316-4.864 2.366-7.506 3.117-1.27-4.065-5.063-7.015-9.546-7.015s-8.276 2.95-9.546 7.014c-2.642-.75-5.157-1.8-7.506-3.117 1.972-3.771 1.375-8.535-1.792-11.703-3.168-3.167-7.933-3.765-11.705-1.793-1.317-2.349-2.367-4.865-3.117-7.506 4.065-1.27 7.014-5.063 7.014-9.546s-2.95-8.276-7.014-9.546c.75-2.642 1.8-5.157 3.117-7.506 1.447.757 3.04 1.136 4.633 1.136 2.559 0 5.119-.977 7.072-2.929 3.168-3.168 3.764-7.933 1.792-11.703 2.349-1.316 4.864-2.366 7.506-3.117 1.27 4.064 5.063 7.014 9.546 7.014s8.276-2.95 9.546-7.015c2.642.75 5.157 1.8 7.506 3.117-1.972 3.771-1.375 8.536 1.793 11.704 1.953 1.953 4.512 2.929 7.071 2.929 1.593 0 3.186-.379 4.633-1.136 1.317 2.349 2.367 4.864 3.117 7.506-4.065 1.27-7.015 5.063-7.015 9.546s2.95 8.277 7.015 9.546c-.75 2.642-1.8 5.157-3.117 7.506-3.771-1.972-8.536-1.375-11.704 1.793z"/><path d="m255.994 246.033h-.007c-5.523 0-9.997 4.477-9.997 10s4.481 10 10.004 10 10-4.477 10-10-4.478-10-10-10z"/><path d="m135.27 166.033h-.007c-5.523 0-9.996 4.477-9.996 10s4.48 10 10.003 10 10-4.477 10-10-4.477-10-10-10z"/></g></g></svg>